Coordinates
nRows=227
nColumns=2
inDegrees=yes
endheader
time	ankle_angle_r	
3.42641	 -0.044887	
3.45968	 -0.008627	
3.49294	  0.014260	
3.52621	  0.022794	
3.55948	  0.019406	
3.59274	  0.008581	
3.62601	  0.003347	
3.65927	  0.011634	
3.69254	  0.024537	
3.72581	  0.028702	
3.75907	  0.017356	
3.79234	 -0.006372	
3.8256	 -0.029144	
3.85887	 -0.043179	
3.89214	 -0.053233	
3.9254	 -0.059691	
3.95867	 -0.054242	
3.99194	 -0.033489	
4.0252	 -0.012164	
4.05847	 -0.015413	
4.09173	 -0.044634	
4.125	 -0.072649	
4.15827	 -0.080472	
4.19153	 -0.070669	
4.2248	 -0.052239	
4.25806	 -0.033551	
4.29133	 -0.018244	
4.3246	 -0.006974	
4.35786	 -0.004609	
4.39113	 -0.012277	
4.4244	 -0.025713	
4.45766	 -0.044036	
4.49093	 -0.060497	
4.52419	 -0.059866	
4.55746	 -0.039876	
4.59073	 -0.017668	
4.62399	 -0.011437	
4.65726	 -0.026221	
4.69052	 -0.051352	
4.72379	 -0.071212	
4.75706	 -0.082146	
4.79032	 -0.086040	
4.82359	 -0.078862	
4.85685	 -0.063095	
4.89012	 -0.049931	
4.92339	 -0.044668	
4.95665	 -0.045671	
4.98992	 -0.045799	
5.02319	 -0.034962	
5.05645	 -0.018344	
5.08972	 -0.013125	
5.12298	 -0.019193	
5.15625	 -0.023150	
5.18952	 -0.022818	
5.22278	 -0.024051	
5.25605	 -0.024683	
5.28931	 -0.015826	
5.32258	  0.000080	
5.35585	  0.008504	
5.38911	  0.001959	
5.42238	 -0.014317	
5.45565	 -0.027869	
5.48891	 -0.028794	
5.52218	 -0.021652	
5.55544	 -0.016741	
5.58871	 -0.013011	
5.62198	 -0.005335	
5.65524	  0.004043	
5.68851	  0.007466	
5.72177	 -0.002427	
5.75504	 -0.018387	
5.78831	 -0.021025	
5.82157	 -0.009880	
5.85484	 -0.005675	
5.8881	 -0.018729	
5.92137	 -0.043199	
5.95464	 -0.070204	
5.9879	 -0.088282	
6.02117	 -0.090326	
6.05444	 -0.079935	
6.0877	 -0.061247	
6.12097	 -0.042339	
6.15423	 -0.040552	
6.1875	 -0.060666	
6.22077	 -0.087025	
6.25403	 -0.103700	
6.2873	 -0.103280	
6.32056	 -0.087442	
6.35383	 -0.066487	
6.3871	 -0.047415	
6.42036	 -0.030764	
6.45363	 -0.016651	
6.4869	 -0.005294	
6.52016	 -0.003387	
6.55343	 -0.020506	
6.58669	 -0.049544	
6.61996	 -0.071305	
6.65323	 -0.075519	
6.68649	 -0.064299	
6.71976	 -0.048730	
6.75302	 -0.042842	
6.78629	 -0.051306	
6.81956	 -0.065946	
6.85282	 -0.073653	
6.88609	 -0.069168	
6.91935	 -0.060781	
6.95262	 -0.060280	
6.98589	 -0.071747	
7.01915	 -0.089231	
7.05242	 -0.101593	
7.08569	 -0.101038	
7.11895	 -0.087983	
7.15222	 -0.071750	
7.18548	 -0.067567	
7.21875	 -0.081822	
7.25202	 -0.096848	
7.28528	 -0.088965	
7.31855	 -0.060855	
7.35181	 -0.035129	
7.38508	 -0.026301	
7.41835	 -0.033931	
7.45161	 -0.047103	
7.48488	 -0.052364	
7.51815	 -0.051199	
7.55141	 -0.055599	
7.58468	 -0.063069	
7.61794	 -0.060110	
7.65121	 -0.040032	
7.68448	 -0.005780	
7.71774	  0.027328	
7.75101	  0.038097	
7.78427	  0.021991	
7.81754	 -0.003597	
7.85081	 -0.020905	
7.88407	 -0.027431	
7.91734	 -0.027360	
7.9506	 -0.021715	
7.98387	 -0.011566	
8.01714	  0.001526	
8.0504	  0.018728	
8.08367	  0.039596	
8.11694	  0.057052	
8.1502	  0.062244	
8.18347	  0.053272	
8.21673	  0.036761	
8.25	  0.022940	
8.28327	  0.015595	
8.31653	  0.006873	
8.3498	 -0.008608	
8.38306	 -0.023881	
8.41633	 -0.031248	
8.4496	 -0.028876	
8.48286	 -0.017696	
8.51613	 -0.002860	
8.5494	  0.007319	
8.58266	  0.005124	
8.61593	 -0.011740	
8.64919	 -0.032128	
8.68246	 -0.040702	
8.71573	 -0.035766	
8.74899	 -0.026924	
8.78226	 -0.024906	
8.81552	 -0.031111	
8.84879	 -0.035950	
8.88206	 -0.035895	
8.91532	 -0.032111	
8.94859	 -0.017649	
8.98185	  0.004236	
9.01512	  0.014502	
9.04839	  0.007587	
9.08165	 -0.007002	
9.11492	 -0.025505	
9.14819	 -0.046458	
9.18145	 -0.058983	
9.21472	 -0.049480	
9.24798	 -0.023057	
9.28125	 -0.005170	
9.31452	 -0.010829	
9.34778	 -0.030305	
9.38105	 -0.046825	
9.41431	 -0.051574	
9.44758	 -0.050332	
9.48085	 -0.058505	
9.51411	 -0.078090	
9.54738	 -0.095124	
9.58065	 -0.101247	
9.61391	 -0.093485	
9.64718	 -0.073602	
9.68044	 -0.062902	
9.71371	 -0.079571	
9.74698	 -0.107697	
9.78024	 -0.121610	
9.81351	 -0.114075	
9.84677	 -0.091007	
9.88004	 -0.065196	
9.91331	 -0.044142	
9.94657	 -0.020972	
9.97984	  0.004092	
10.0131	  0.013144	
10.0464	 -0.001066	
10.0796	 -0.019451	
10.1129	 -0.018346	
10.1462	  0.004918	
10.1794	  0.024347	
10.2127	  0.009597	
10.246	 -0.031355	
10.2792	 -0.058023	
10.3125	 -0.051127	
10.3458	 -0.029151	
10.379	 -0.013684	
10.4123	 -0.006238	
10.4456	  0.000078	
10.4788	  0.005721	
10.5121	  0.008357	
10.5454	  0.008013	
10.5786	  0.006924	
10.6119	  0.013466	
10.6452	  0.032815	
10.6784	  0.052939	
10.7117	  0.058501	
10.745	  0.047621	
10.7782	  0.026091	
10.8115	  0.001299	
10.8448	 -0.016934	
10.878	 -0.019385	
10.9113	 -0.001833	
10.9446	  0.030662	
